<svg xmlns="http://www.w3.org/2000/svg" xmlns:xlink="http://www.w3.org/1999/xlink" width="500" zoomAndPan="magnify" viewBox="0 0 375 374.999991" height="500" preserveAspectRatio="xMidYMid meet" version="1.0"><defs><g/></defs><g fill="#000000" fill-opacity="1"><g transform="translate(37.500002, 160.357312)"><g><path d="M 4.15625 0 L 4.15625 -35.484375 L 16.390625 -35.484375 L 16.390625 -31.75 L 16.53125 -31.75 C 19.707031 -34.925781 23.09375 -36.515625 26.6875 -36.515625 C 29.269531 -36.515625 31.691406 -35.984375 33.953125 -34.921875 C 36.210938 -33.859375 37.921875 -32.222656 39.078125 -30.015625 C 42.671875 -34.347656 46.585938 -36.515625 50.828125 -36.515625 C 54.609375 -36.515625 57.859375 -35.453125 60.578125 -33.328125 C 63.296875 -31.210938 64.65625 -27.894531 64.65625 -23.375 L 64.65625 0 L 52.421875 0 L 52.421875 -20.0625 C 52.421875 -21.945312 51.898438 -23.519531 50.859375 -24.78125 C 49.828125 -26.050781 48.273438 -26.6875 46.203125 -26.6875 C 44.398438 -26.6875 43.023438 -26.144531 42.078125 -25.0625 C 41.128906 -23.976562 40.613281 -22.675781 40.53125 -21.15625 L 40.53125 0 L 28.28125 0 L 28.28125 -20.0625 C 28.28125 -21.945312 27.757812 -23.519531 26.71875 -24.78125 C 25.6875 -26.050781 24.132812 -26.6875 22.0625 -26.6875 C 20.164062 -26.6875 18.742188 -26.097656 17.796875 -24.921875 C 16.859375 -23.753906 16.390625 -22.363281 16.390625 -20.75 L 16.390625 0 Z M 4.15625 0 "/></g></g></g><g fill="#000000" fill-opacity="1"><g transform="translate(102.164471, 160.357312)"><g><path d="M 6.5625 -4.390625 C 3.25 -8.003906 1.59375 -12.441406 1.59375 -17.703125 C 1.59375 -22.960938 3.25 -27.410156 6.5625 -31.046875 C 9.882812 -34.691406 14.101562 -36.515625 19.21875 -36.515625 C 23.925781 -36.515625 27.800781 -35.039062 30.84375 -32.09375 L 30.84375 -35.484375 L 43.078125 -35.484375 L 43.078125 0 L 30.984375 0 L 30.984375 -4.015625 L 30.84375 -4.015625 C 27.800781 -0.648438 23.925781 1.03125 19.21875 1.03125 C 14.101562 1.03125 9.882812 -0.773438 6.5625 -4.390625 Z M 16.96875 -23.71875 C 15.382812 -22.15625 14.59375 -20.148438 14.59375 -17.703125 C 14.59375 -15.253906 15.351562 -13.257812 16.875 -11.71875 C 18.394531 -10.175781 20.398438 -9.40625 22.890625 -9.40625 C 25.285156 -9.40625 27.253906 -10.1875 28.796875 -11.75 C 30.347656 -13.320312 31.125 -15.304688 31.125 -17.703125 C 31.125 -20.148438 30.328125 -22.15625 28.734375 -23.71875 C 27.140625 -25.289062 25.191406 -26.078125 22.890625 -26.078125 C 20.535156 -26.078125 18.5625 -25.289062 16.96875 -23.71875 Z M 16.96875 -23.71875 "/></g></g></g><g fill="#000000" fill-opacity="1"><g transform="translate(145.942663, 160.357312)"><g><path d="M 4.15625 0 L 4.15625 -35.484375 L 16.390625 -35.484375 L 16.390625 -31.75 L 16.53125 -31.75 C 19.707031 -34.925781 23.09375 -36.515625 26.6875 -36.515625 C 28.445312 -36.515625 30.191406 -36.28125 31.921875 -35.8125 C 33.648438 -35.351562 35.304688 -34.640625 36.890625 -33.671875 C 38.484375 -32.710938 39.773438 -31.34375 40.765625 -29.5625 C 41.753906 -27.789062 42.25 -25.726562 42.25 -23.375 L 42.25 0 L 30.015625 0 L 30.015625 -20.0625 C 30.015625 -21.90625 29.425781 -23.515625 28.25 -24.890625 C 27.070312 -26.273438 25.539062 -26.96875 23.65625 -26.96875 C 21.8125 -26.96875 20.140625 -26.253906 18.640625 -24.828125 C 17.140625 -23.398438 16.390625 -21.8125 16.390625 -20.0625 L 16.390625 0 Z M 4.15625 0 "/></g></g></g><g fill="#000000" fill-opacity="1"><g transform="translate(188.199339, 160.357312)"><g><path d="M 6.5625 -4.390625 C 3.25 -8.003906 1.59375 -12.441406 1.59375 -17.703125 C 1.59375 -22.960938 3.25 -27.410156 6.5625 -31.046875 C 9.882812 -34.691406 14.101562 -36.515625 19.21875 -36.515625 C 23.925781 -36.515625 27.800781 -35.039062 30.84375 -32.09375 L 30.84375 -35.484375 L 43.078125 -35.484375 L 43.078125 0 L 30.984375 0 L 30.984375 -4.015625 L 30.84375 -4.015625 C 27.800781 -0.648438 23.925781 1.03125 19.21875 1.03125 C 14.101562 1.03125 9.882812 -0.773438 6.5625 -4.390625 Z M 16.96875 -23.71875 C 15.382812 -22.15625 14.59375 -20.148438 14.59375 -17.703125 C 14.59375 -15.253906 15.351562 -13.257812 16.875 -11.71875 C 18.394531 -10.175781 20.398438 -9.40625 22.890625 -9.40625 C 25.285156 -9.40625 27.253906 -10.1875 28.796875 -11.75 C 30.347656 -13.320312 31.125 -15.304688 31.125 -17.703125 C 31.125 -20.148438 30.328125 -22.15625 28.734375 -23.71875 C 27.140625 -25.289062 25.191406 -26.078125 22.890625 -26.078125 C 20.535156 -26.078125 18.5625 -25.289062 16.96875 -23.71875 Z M 16.96875 -23.71875 "/></g></g></g><g fill="#000000" fill-opacity="1"><g transform="translate(231.977524, 160.357312)"><g><path d="M 19.578125 -36.515625 C 21.597656 -36.515625 23.597656 -36.28125 25.578125 -35.8125 C 27.566406 -35.351562 29.046875 -34.894531 30.015625 -34.4375 L 31.46875 -33.75 L 27.453125 -25.71875 C 24.691406 -27.195312 22.066406 -27.9375 19.578125 -27.9375 C 18.191406 -27.9375 17.207031 -27.785156 16.625 -27.484375 C 16.050781 -27.191406 15.765625 -26.628906 15.765625 -25.796875 C 15.765625 -25.609375 15.785156 -25.421875 15.828125 -25.234375 C 15.878906 -25.054688 15.972656 -24.882812 16.109375 -24.71875 C 16.253906 -24.5625 16.382812 -24.425781 16.5 -24.3125 C 16.613281 -24.195312 16.804688 -24.066406 17.078125 -23.921875 C 17.359375 -23.785156 17.578125 -23.679688 17.734375 -23.609375 C 17.898438 -23.546875 18.164062 -23.441406 18.53125 -23.296875 C 18.90625 -23.160156 19.179688 -23.054688 19.359375 -22.984375 C 19.546875 -22.921875 19.859375 -22.816406 20.296875 -22.671875 C 20.734375 -22.535156 21.066406 -22.445312 21.296875 -22.40625 C 22.722656 -21.988281 23.96875 -21.523438 25.03125 -21.015625 C 26.09375 -20.515625 27.210938 -19.828125 28.390625 -18.953125 C 29.566406 -18.078125 30.476562 -16.96875 31.125 -15.625 C 31.769531 -14.289062 32.09375 -12.769531 32.09375 -11.0625 C 32.09375 -3 26.488281 1.03125 15.28125 1.03125 C 12.75 1.03125 10.34375 0.640625 8.0625 -0.140625 C 5.78125 -0.921875 4.128906 -1.703125 3.109375 -2.484375 L 1.59375 -3.734375 L 6.5625 -12.109375 C 6.9375 -11.785156 7.421875 -11.398438 8.015625 -10.953125 C 8.617188 -10.515625 9.703125 -9.914062 11.265625 -9.15625 C 12.835938 -8.394531 14.203125 -8.015625 15.359375 -8.015625 C 17.890625 -8.015625 19.15625 -8.867188 19.15625 -10.578125 C 19.15625 -11.359375 18.832031 -11.96875 18.1875 -12.40625 C 17.539062 -12.851562 16.445312 -13.351562 14.90625 -13.90625 C 13.363281 -14.457031 12.148438 -14.960938 11.265625 -15.421875 C 9.054688 -16.578125 7.304688 -17.878906 6.015625 -19.328125 C 4.722656 -20.773438 4.078125 -22.703125 4.078125 -25.109375 C 4.078125 -28.703125 5.472656 -31.5 8.265625 -33.5 C 11.054688 -35.507812 14.828125 -36.515625 19.578125 -36.515625 Z M 19.578125 -36.515625 "/></g></g></g><g fill="#000000" fill-opacity="1"><g transform="translate(37.500002, 226.059127)"><g><path d="M 13.140625 -35.484375 L 21.78125 -16.1875 L 30.421875 -35.484375 L 44.953125 -35.484375 L 25.9375 0 L 17.640625 0 L -1.390625 -35.484375 Z M 13.140625 -35.484375 "/></g></g></g><g fill="#000000" fill-opacity="1"><g transform="translate(77.612726, 226.059127)"><g><path d="M 40.046875 -16.046875 L 14.3125 -16.046875 C 14.3125 -13.554688 15.117188 -11.710938 16.734375 -10.515625 C 18.347656 -9.316406 20.097656 -8.71875 21.984375 -8.71875 C 23.972656 -8.71875 25.539062 -8.976562 26.6875 -9.5 C 27.84375 -10.03125 29.160156 -11.082031 30.640625 -12.65625 L 39.484375 -8.234375 C 35.796875 -2.054688 29.664062 1.03125 21.09375 1.03125 C 15.75 1.03125 11.160156 -0.796875 7.328125 -4.453125 C 3.503906 -8.117188 1.59375 -12.535156 1.59375 -17.703125 C 1.59375 -22.867188 3.503906 -27.296875 7.328125 -30.984375 C 11.160156 -34.671875 15.75 -36.515625 21.09375 -36.515625 C 26.71875 -36.515625 31.289062 -34.890625 34.8125 -31.640625 C 38.34375 -28.390625 40.109375 -23.742188 40.109375 -17.703125 C 40.109375 -16.867188 40.085938 -16.316406 40.046875 -16.046875 Z M 14.65625 -22.828125 L 28.140625 -22.828125 C 27.867188 -24.671875 27.144531 -26.085938 25.96875 -27.078125 C 24.789062 -28.066406 23.28125 -28.5625 21.4375 -28.5625 C 19.40625 -28.5625 17.789062 -28.03125 16.59375 -26.96875 C 15.394531 -25.90625 14.75 -24.523438 14.65625 -22.828125 Z M 14.65625 -22.828125 "/></g></g></g><g fill="#000000" fill-opacity="1"><g transform="translate(115.858128, 226.059127)"><g><path d="M 4.15625 0 L 4.15625 -35.484375 L 16.390625 -35.484375 L 16.390625 -30.359375 L 16.53125 -30.359375 C 16.625 -30.546875 16.769531 -30.773438 16.96875 -31.046875 C 17.175781 -31.328125 17.625 -31.8125 18.3125 -32.5 C 19.007812 -33.195312 19.75 -33.820312 20.53125 -34.375 C 21.320312 -34.925781 22.335938 -35.421875 23.578125 -35.859375 C 24.828125 -36.296875 26.097656 -36.515625 27.390625 -36.515625 C 28.722656 -36.515625 30.035156 -36.328125 31.328125 -35.953125 C 32.617188 -35.585938 33.5625 -35.222656 34.15625 -34.859375 L 35.125 -34.296875 L 30.015625 -23.921875 C 28.492188 -25.210938 26.375 -25.859375 23.65625 -25.859375 C 22.175781 -25.859375 20.90625 -25.535156 19.84375 -24.890625 C 18.78125 -24.242188 18.03125 -23.457031 17.59375 -22.53125 C 17.15625 -21.613281 16.84375 -20.832031 16.65625 -20.1875 C 16.476562 -19.539062 16.390625 -19.035156 16.390625 -18.671875 L 16.390625 0 Z M 4.15625 0 "/></g></g></g><g fill="#000000" fill-opacity="1"><g transform="translate(146.841744, 226.059127)"><g><path d="M 4.15625 0 L 4.15625 -35.484375 L 16.390625 -35.484375 L 16.390625 -31.75 L 16.53125 -31.75 C 19.707031 -34.925781 23.09375 -36.515625 26.6875 -36.515625 C 29.269531 -36.515625 31.691406 -35.984375 33.953125 -34.921875 C 36.210938 -33.859375 37.921875 -32.222656 39.078125 -30.015625 C 42.671875 -34.347656 46.585938 -36.515625 50.828125 -36.515625 C 54.609375 -36.515625 57.859375 -35.453125 60.578125 -33.328125 C 63.296875 -31.210938 64.65625 -27.894531 64.65625 -23.375 L 64.65625 0 L 52.421875 0 L 52.421875 -20.0625 C 52.421875 -21.945312 51.898438 -23.519531 50.859375 -24.78125 C 49.828125 -26.050781 48.273438 -26.6875 46.203125 -26.6875 C 44.398438 -26.6875 43.023438 -26.144531 42.078125 -25.0625 C 41.128906 -23.976562 40.613281 -22.675781 40.53125 -21.15625 L 40.53125 0 L 28.28125 0 L 28.28125 -20.0625 C 28.28125 -21.945312 27.757812 -23.519531 26.71875 -24.78125 C 25.6875 -26.050781 24.132812 -26.6875 22.0625 -26.6875 C 20.164062 -26.6875 18.742188 -26.097656 17.796875 -24.921875 C 16.859375 -23.753906 16.390625 -22.363281 16.390625 -20.75 L 16.390625 0 Z M 4.15625 0 "/></g></g></g><g fill="#000000" fill-opacity="1"><g transform="translate(211.50622, 226.059127)"><g><path d="M 6.5625 -4.390625 C 3.25 -8.003906 1.59375 -12.441406 1.59375 -17.703125 C 1.59375 -22.960938 3.25 -27.410156 6.5625 -31.046875 C 9.882812 -34.691406 14.101562 -36.515625 19.21875 -36.515625 C 23.925781 -36.515625 27.800781 -35.039062 30.84375 -32.09375 L 30.84375 -35.484375 L 43.078125 -35.484375 L 43.078125 0 L 30.984375 0 L 30.984375 -4.015625 L 30.84375 -4.015625 C 27.800781 -0.648438 23.925781 1.03125 19.21875 1.03125 C 14.101562 1.03125 9.882812 -0.773438 6.5625 -4.390625 Z M 16.96875 -23.71875 C 15.382812 -22.15625 14.59375 -20.148438 14.59375 -17.703125 C 14.59375 -15.253906 15.351562 -13.257812 16.875 -11.71875 C 18.394531 -10.175781 20.398438 -9.40625 22.890625 -9.40625 C 25.285156 -9.40625 27.253906 -10.1875 28.796875 -11.75 C 30.347656 -13.320312 31.125 -15.304688 31.125 -17.703125 C 31.125 -20.148438 30.328125 -22.15625 28.734375 -23.71875 C 27.140625 -25.289062 25.191406 -26.078125 22.890625 -26.078125 C 20.535156 -26.078125 18.5625 -25.289062 16.96875 -23.71875 Z M 16.96875 -23.71875 "/></g></g></g><g fill="#000000" fill-opacity="1"><g transform="translate(37.500002, 270.983202)"><g><path d="M 4.9375 0 L 0.9375 0 C 0.800781 0 0.734375 -0.0625 0.734375 -0.1875 L 0.734375 -0.96875 C 0.734375 -1.082031 0.800781 -1.140625 0.9375 -1.140625 L 2.09375 -1.140625 L 2.09375 -9.84375 L 0.9375 -9.84375 C 0.800781 -9.84375 0.734375 -9.90625 0.734375 -10.03125 L 0.734375 -10.8125 C 0.734375 -10.9375 0.800781 -11 0.9375 -11 L 5.65625 -11 C 6.726562 -11 7.609375 -10.679688 8.296875 -10.046875 C 8.992188 -9.421875 9.34375 -8.570312 9.34375 -7.5 C 9.34375 -6.4375 9.003906 -5.613281 8.328125 -5.03125 C 7.648438 -4.445312 6.703125 -4.15625 5.484375 -4.15625 L 3.4375 -4.15625 L 3.4375 -1.140625 L 4.9375 -1.140625 C 5.050781 -1.140625 5.109375 -1.082031 5.109375 -0.96875 L 5.109375 -0.1875 C 5.109375 -0.0625 5.050781 0 4.9375 0 Z M 3.4375 -5.234375 L 5.421875 -5.234375 C 7.140625 -5.234375 8 -5.988281 8 -7.5 C 8 -8.289062 7.753906 -8.878906 7.265625 -9.265625 C 6.773438 -9.648438 6.164062 -9.84375 5.4375 -9.84375 L 3.4375 -9.84375 Z M 3.4375 -5.234375 "/></g></g></g><g fill="#000000" fill-opacity="1"><g transform="translate(48.342251, 270.983202)"><g><path d="M 9.0625 0 L 0.9375 0 C 0.800781 0 0.734375 -0.0625 0.734375 -0.1875 L 0.734375 -0.96875 C 0.734375 -1.082031 0.800781 -1.140625 0.9375 -1.140625 L 2.09375 -1.140625 L 2.09375 -9.84375 L 0.9375 -9.84375 C 0.800781 -9.84375 0.734375 -9.90625 0.734375 -10.03125 L 0.734375 -10.8125 C 0.734375 -10.9375 0.800781 -11 0.9375 -11 L 9.0625 -11 C 9.195312 -11 9.265625 -10.9375 9.265625 -10.8125 L 9.265625 -8.34375 C 9.265625 -8.207031 9.195312 -8.140625 9.0625 -8.140625 L 8.234375 -8.140625 C 8.109375 -8.140625 8.046875 -8.207031 8.046875 -8.34375 L 8.046875 -9.84375 L 3.4375 -9.84375 L 3.4375 -6.046875 L 7.296875 -6.046875 C 7.429688 -6.046875 7.5 -5.984375 7.5 -5.859375 L 7.5 -5.078125 C 7.5 -4.960938 7.429688 -4.90625 7.296875 -4.90625 L 3.4375 -4.90625 L 3.4375 -1.140625 L 8.03125 -1.140625 L 8.03125 -2.65625 C 8.03125 -2.769531 8.097656 -2.828125 8.234375 -2.828125 L 9.0625 -2.828125 C 9.195312 -2.828125 9.265625 -2.769531 9.265625 -2.65625 L 9.265625 -0.1875 C 9.265625 -0.0625 9.195312 0 9.0625 0 Z M 9.0625 0 "/></g></g></g><g fill="#000000" fill-opacity="1"><g transform="translate(59.10793, 270.983202)"><g><path d="M 10.03125 0 L 8.703125 0 C 8.328125 0 8.019531 -0.242188 7.78125 -0.734375 L 6.34375 -3.65625 C 6.21875 -3.914062 6.082031 -4.101562 5.9375 -4.21875 C 5.800781 -4.34375 5.613281 -4.410156 5.375 -4.421875 L 3.4375 -4.421875 L 3.4375 -1.140625 L 4.8125 -1.140625 C 4.925781 -1.140625 4.984375 -1.082031 4.984375 -0.96875 L 4.984375 -0.1875 C 4.984375 -0.0625 4.925781 0 4.8125 0 L 0.9375 0 C 0.800781 0 0.734375 -0.0625 0.734375 -0.1875 L 0.734375 -0.96875 C 0.734375 -1.082031 0.800781 -1.140625 0.9375 -1.140625 L 2.09375 -1.140625 L 2.09375 -9.84375 L 0.9375 -9.84375 C 0.800781 -9.84375 0.734375 -9.90625 0.734375 -10.03125 L 0.734375 -10.8125 C 0.734375 -10.9375 0.800781 -11 0.9375 -11 L 5.65625 -11 C 6.738281 -11 7.625 -10.707031 8.3125 -10.125 C 9 -9.550781 9.34375 -8.738281 9.34375 -7.6875 C 9.34375 -6.082031 8.59375 -5.082031 7.09375 -4.6875 C 7.28125 -4.53125 7.519531 -4.1875 7.8125 -3.65625 L 9.09375 -1.140625 L 10.03125 -1.140625 C 10.15625 -1.140625 10.21875 -1.082031 10.21875 -0.96875 L 10.21875 -0.1875 C 10.21875 -0.0625 10.15625 0 10.03125 0 Z M 3.4375 -5.515625 L 5.390625 -5.515625 C 7.128906 -5.515625 8 -6.222656 8 -7.640625 C 8 -9.109375 7.128906 -9.84375 5.390625 -9.84375 L 3.4375 -9.84375 Z M 3.4375 -5.515625 "/></g></g></g><g fill="#000000" fill-opacity="1"><g transform="translate(70.823071, 270.983202)"><g><path d="M 1.796875 0 L 0.9375 0 C 0.800781 0 0.734375 -0.0625 0.734375 -0.1875 L 0.734375 -3.765625 C 0.734375 -3.898438 0.800781 -3.96875 0.9375 -3.96875 L 1.90625 -3.96875 C 2.019531 -3.96875 2.078125 -3.898438 2.078125 -3.765625 L 2.078125 -3.4375 C 2.078125 -3.25 2.191406 -2.992188 2.421875 -2.671875 C 2.660156 -2.347656 2.894531 -2.082031 3.125 -1.875 C 3.363281 -1.675781 3.679688 -1.503906 4.078125 -1.359375 C 4.472656 -1.210938 4.898438 -1.140625 5.359375 -1.140625 C 6.140625 -1.140625 6.753906 -1.300781 7.203125 -1.625 C 7.648438 -1.945312 7.875 -2.398438 7.875 -2.984375 C 7.875 -3.316406 7.75 -3.601562 7.5 -3.84375 C 7.25 -4.082031 6.921875 -4.273438 6.515625 -4.421875 C 6.117188 -4.566406 5.675781 -4.695312 5.1875 -4.8125 C 4.707031 -4.9375 4.222656 -5.078125 3.734375 -5.234375 C 3.253906 -5.398438 2.816406 -5.59375 2.421875 -5.8125 C 2.023438 -6.03125 1.703125 -6.332031 1.453125 -6.71875 C 1.203125 -7.113281 1.078125 -7.578125 1.078125 -8.109375 C 1.078125 -8.972656 1.398438 -9.6875 2.046875 -10.25 C 2.691406 -10.8125 3.5625 -11.09375 4.65625 -11.09375 C 6.03125 -11.09375 7.039062 -10.6875 7.6875 -9.875 L 7.65625 -10.828125 C 7.65625 -10.953125 7.722656 -11.015625 7.859375 -11.015625 L 8.71875 -11.015625 C 8.832031 -11.015625 8.890625 -10.953125 8.890625 -10.828125 L 8.890625 -7.484375 C 8.890625 -7.359375 8.832031 -7.296875 8.71875 -7.296875 L 7.75 -7.296875 C 7.625 -7.296875 7.5625 -7.359375 7.5625 -7.484375 L 7.5625 -7.921875 C 7.5625 -8.335938 7.328125 -8.757812 6.859375 -9.1875 C 6.390625 -9.613281 5.703125 -9.828125 4.796875 -9.828125 C 4.117188 -9.828125 3.570312 -9.664062 3.15625 -9.34375 C 2.75 -9.019531 2.546875 -8.609375 2.546875 -8.109375 C 2.546875 -7.753906 2.671875 -7.445312 2.921875 -7.1875 C 3.179688 -6.9375 3.515625 -6.734375 3.921875 -6.578125 C 4.328125 -6.429688 4.773438 -6.289062 5.265625 -6.15625 C 5.753906 -6.03125 6.242188 -5.890625 6.734375 -5.734375 C 7.222656 -5.585938 7.671875 -5.40625 8.078125 -5.1875 C 8.492188 -4.976562 8.828125 -4.6875 9.078125 -4.3125 C 9.335938 -3.9375 9.46875 -3.492188 9.46875 -2.984375 C 9.46875 -2.085938 9.144531 -1.347656 8.5 -0.765625 C 7.851562 -0.179688 6.894531 0.109375 5.625 0.109375 C 4.675781 0.109375 3.894531 -0.078125 3.28125 -0.453125 C 2.675781 -0.835938 2.234375 -1.25 1.953125 -1.6875 L 1.96875 -0.1875 C 1.96875 -0.0625 1.910156 0 1.796875 0 Z M 1.796875 0 "/></g></g></g><g fill="#000000" fill-opacity="1"><g transform="translate(81.787834, 270.983202)"><g><path d="M 11.390625 -5.546875 C 11.390625 -3.867188 10.882812 -2.503906 9.875 -1.453125 C 8.875 -0.410156 7.609375 0.109375 6.078125 0.109375 C 4.554688 0.109375 3.285156 -0.414062 2.265625 -1.46875 C 1.242188 -2.53125 0.734375 -3.894531 0.734375 -5.5625 C 0.734375 -7.226562 1.257812 -8.566406 2.3125 -9.578125 C 3.363281 -10.585938 4.617188 -11.09375 6.078125 -11.09375 C 7.535156 -11.09375 8.785156 -10.585938 9.828125 -9.578125 C 10.867188 -8.566406 11.390625 -7.222656 11.390625 -5.546875 Z M 3.34375 -2.296875 C 4.125 -1.523438 5.035156 -1.140625 6.078125 -1.140625 C 7.117188 -1.140625 8.023438 -1.523438 8.796875 -2.296875 C 9.578125 -3.078125 9.96875 -4.148438 9.96875 -5.515625 C 9.96875 -6.878906 9.570312 -7.945312 8.78125 -8.71875 C 7.988281 -9.488281 7.085938 -9.875 6.078125 -9.875 C 5.066406 -9.875 4.160156 -9.488281 3.359375 -8.71875 C 2.566406 -7.945312 2.171875 -6.878906 2.171875 -5.515625 C 2.171875 -4.148438 2.5625 -3.078125 3.34375 -2.296875 Z M 3.34375 -2.296875 "/></g></g></g><g fill="#000000" fill-opacity="1"><g transform="translate(94.69746, 270.983202)"><g><path d="M 10.265625 0 L 9.4375 0 C 9.238281 0 9.082031 -0.0351562 8.96875 -0.109375 C 8.851562 -0.191406 8.75 -0.3125 8.65625 -0.46875 L 4.21875 -7.390625 L 3.453125 -8.6875 L 3.4375 -8.6875 L 3.4375 -1.140625 L 4.609375 -1.140625 C 4.742188 -1.140625 4.8125 -1.082031 4.8125 -0.96875 L 4.8125 -0.1875 C 4.8125 -0.0625 4.742188 0 4.609375 0 L 0.9375 0 C 0.800781 0 0.734375 -0.0625 0.734375 -0.1875 L 0.734375 -0.96875 C 0.734375 -1.082031 0.800781 -1.140625 0.9375 -1.140625 L 2.09375 -1.140625 L 2.09375 -9.84375 L 0.9375 -9.84375 C 0.800781 -9.84375 0.734375 -9.90625 0.734375 -10.03125 L 0.734375 -10.8125 C 0.734375 -10.9375 0.800781 -11 0.9375 -11 L 3.078125 -11 C 3.367188 -11 3.628906 -10.820312 3.859375 -10.46875 L 8.21875 -3.640625 L 9.09375 -2.15625 L 9.125 -2.15625 L 9.125 -9.84375 L 7.953125 -9.84375 C 7.828125 -9.84375 7.765625 -9.90625 7.765625 -10.03125 L 7.765625 -10.8125 C 7.765625 -10.9375 7.828125 -11 7.953125 -11 L 11.640625 -11 C 11.765625 -11 11.828125 -10.9375 11.828125 -10.8125 L 11.828125 -10.03125 C 11.828125 -9.90625 11.765625 -9.84375 11.640625 -9.84375 L 10.453125 -9.84375 L 10.453125 -0.1875 C 10.453125 -0.0625 10.390625 0 10.265625 0 Z M 10.265625 0 "/></g></g></g><g fill="#000000" fill-opacity="1"><g transform="translate(108.020565, 270.983202)"><g><path d="M 11.765625 0 L 8.296875 0 C 8.171875 0 8.109375 -0.0625 8.109375 -0.1875 L 8.109375 -0.96875 C 8.109375 -1.082031 8.171875 -1.140625 8.296875 -1.140625 L 9.375 -1.140625 L 8.375 -3.796875 L 4.109375 -3.796875 L 3.109375 -1.140625 L 4.1875 -1.140625 C 4.300781 -1.140625 4.359375 -1.082031 4.359375 -0.96875 L 4.359375 -0.1875 C 4.359375 -0.0625 4.300781 0 4.1875 0 L 0.734375 0 C 0.609375 0 0.546875 -0.0625 0.546875 -0.1875 L 0.546875 -0.96875 C 0.546875 -1.082031 0.609375 -1.140625 0.734375 -1.140625 L 1.765625 -1.140625 L 5.046875 -9.84375 L 4.21875 -9.84375 C 4.09375 -9.84375 4.03125 -9.90625 4.03125 -10.03125 L 4.03125 -10.8125 C 4.03125 -10.9375 4.09375 -11 4.21875 -11 L 6.3125 -11 C 6.550781 -11 6.734375 -10.945312 6.859375 -10.84375 C 6.992188 -10.738281 7.109375 -10.566406 7.203125 -10.328125 L 10.71875 -1.140625 L 11.765625 -1.140625 C 11.878906 -1.140625 11.9375 -1.082031 11.9375 -0.96875 L 11.9375 -0.1875 C 11.9375 -0.0625 11.878906 0 11.765625 0 Z M 7.96875 -4.859375 L 6.265625 -9.40625 L 6.21875 -9.40625 L 4.5 -4.859375 Z M 7.96875 -4.859375 "/></g></g></g><g fill="#000000" fill-opacity="1"><g transform="translate(121.665257, 270.983202)"><g><path d="M 9.3125 0 L 0.9375 0 C 0.800781 0 0.734375 -0.0625 0.734375 -0.1875 L 0.734375 -0.96875 C 0.734375 -1.082031 0.800781 -1.140625 0.9375 -1.140625 L 2.09375 -1.140625 L 2.09375 -9.84375 L 0.9375 -9.84375 C 0.800781 -9.84375 0.734375 -9.90625 0.734375 -10.03125 L 0.734375 -10.8125 C 0.734375 -10.9375 0.800781 -11 0.9375 -11 L 4.59375 -11 C 4.726562 -11 4.796875 -10.929688 4.796875 -10.796875 L 4.796875 -10.046875 C 4.796875 -9.910156 4.726562 -9.84375 4.59375 -9.84375 L 3.4375 -9.84375 L 3.4375 -1.140625 L 8.296875 -1.140625 L 8.296875 -2.65625 C 8.296875 -2.769531 8.363281 -2.828125 8.5 -2.828125 L 9.328125 -2.828125 C 9.453125 -2.828125 9.515625 -2.769531 9.515625 -2.65625 L 9.515625 -0.203125 C 9.515625 -0.0664062 9.445312 0 9.3125 0 Z M 9.3125 0 "/></g></g></g><g fill="#000000" fill-opacity="1"><g transform="translate(132.691272, 270.983202)"><g/></g></g><g fill="#000000" fill-opacity="1"><g transform="translate(138.250227, 270.983202)"><g><path d="M 11.453125 0 L 10.875 0 C 10.5 0 10.257812 -0.203125 10.15625 -0.609375 L 8.375 -8.390625 L 8.328125 -8.390625 L 6.578125 -0.609375 C 6.484375 -0.203125 6.238281 0 5.84375 0 L 5.28125 0 C 4.925781 0 4.679688 -0.203125 4.546875 -0.609375 L 1.75 -9.84375 L 0.78125 -9.84375 C 0.644531 -9.84375 0.578125 -9.90625 0.578125 -10.03125 L 0.578125 -10.8125 C 0.578125 -10.9375 0.644531 -11 0.78125 -11 L 4.21875 -11 C 4.351562 -11 4.421875 -10.9375 4.421875 -10.8125 L 4.421875 -10.03125 C 4.421875 -9.90625 4.351562 -9.84375 4.21875 -9.84375 L 3.15625 -9.84375 L 5.53125 -1.625 L 5.625 -1.625 L 7.75 -11 L 8.96875 -11 L 11.109375 -1.625 L 11.203125 -1.625 L 13.578125 -9.84375 L 12.5 -9.84375 C 12.375 -9.84375 12.3125 -9.90625 12.3125 -10.03125 L 12.3125 -10.8125 C 12.3125 -10.9375 12.375 -11 12.5 -11 L 15.953125 -11 C 16.078125 -11 16.140625 -10.9375 16.140625 -10.8125 L 16.140625 -10.03125 C 16.140625 -9.90625 16.078125 -9.84375 15.953125 -9.84375 L 14.96875 -9.84375 L 12.171875 -0.609375 C 12.046875 -0.203125 11.804688 0 11.453125 0 Z M 11.453125 0 "/></g></g></g><g fill="#000000" fill-opacity="1"><g transform="translate(155.769343, 270.983202)"><g><path d="M 9.0625 0 L 0.9375 0 C 0.800781 0 0.734375 -0.0625 0.734375 -0.1875 L 0.734375 -0.96875 C 0.734375 -1.082031 0.800781 -1.140625 0.9375 -1.140625 L 2.09375 -1.140625 L 2.09375 -9.84375 L 0.9375 -9.84375 C 0.800781 -9.84375 0.734375 -9.90625 0.734375 -10.03125 L 0.734375 -10.8125 C 0.734375 -10.9375 0.800781 -11 0.9375 -11 L 9.0625 -11 C 9.195312 -11 9.265625 -10.9375 9.265625 -10.8125 L 9.265625 -8.34375 C 9.265625 -8.207031 9.195312 -8.140625 9.0625 -8.140625 L 8.234375 -8.140625 C 8.109375 -8.140625 8.046875 -8.207031 8.046875 -8.34375 L 8.046875 -9.84375 L 3.4375 -9.84375 L 3.4375 -6.046875 L 7.296875 -6.046875 C 7.429688 -6.046875 7.5 -5.984375 7.5 -5.859375 L 7.5 -5.078125 C 7.5 -4.960938 7.429688 -4.90625 7.296875 -4.90625 L 3.4375 -4.90625 L 3.4375 -1.140625 L 8.03125 -1.140625 L 8.03125 -2.65625 C 8.03125 -2.769531 8.097656 -2.828125 8.234375 -2.828125 L 9.0625 -2.828125 C 9.195312 -2.828125 9.265625 -2.769531 9.265625 -2.65625 L 9.265625 -0.1875 C 9.265625 -0.0625 9.195312 0 9.0625 0 Z M 9.0625 0 "/></g></g></g><g fill="#000000" fill-opacity="1"><g transform="translate(166.535024, 270.983202)"><g><path d="M 5.875 0 L 0.9375 0 C 0.800781 0 0.734375 -0.0625 0.734375 -0.1875 L 0.734375 -0.96875 C 0.734375 -1.082031 0.800781 -1.140625 0.9375 -1.140625 L 2.09375 -1.140625 L 2.09375 -9.84375 L 0.9375 -9.84375 C 0.800781 -9.84375 0.734375 -9.90625 0.734375 -10.03125 L 0.734375 -10.8125 C 0.734375 -10.9375 0.800781 -11 0.9375 -11 L 5.859375 -11 C 6.878906 -11 7.671875 -10.726562 8.234375 -10.1875 C 8.804688 -9.644531 9.09375 -8.929688 9.09375 -8.046875 C 9.09375 -7.015625 8.640625 -6.242188 7.734375 -5.734375 C 9.035156 -5.359375 9.6875 -4.492188 9.6875 -3.140625 C 9.6875 -2.179688 9.367188 -1.414062 8.734375 -0.84375 C 8.097656 -0.28125 7.144531 0 5.875 0 Z M 3.4375 -1.140625 L 5.765625 -1.140625 C 6.578125 -1.140625 7.207031 -1.3125 7.65625 -1.65625 C 8.113281 -2 8.34375 -2.53125 8.34375 -3.25 C 8.34375 -4.519531 7.515625 -5.15625 5.859375 -5.15625 L 3.4375 -5.15625 Z M 3.4375 -6.171875 L 5.765625 -6.171875 C 6.296875 -6.179688 6.757812 -6.332031 7.15625 -6.625 C 7.550781 -6.925781 7.75 -7.390625 7.75 -8.015625 C 7.75 -8.648438 7.539062 -9.113281 7.125 -9.40625 C 6.707031 -9.695312 6.203125 -9.84375 5.609375 -9.84375 L 3.4375 -9.84375 Z M 3.4375 -6.171875 "/></g></g></g><g fill="#000000" fill-opacity="1"><g transform="translate(177.729487, 270.983202)"><g><path d="M 1.796875 0 L 0.9375 0 C 0.800781 0 0.734375 -0.0625 0.734375 -0.1875 L 0.734375 -3.765625 C 0.734375 -3.898438 0.800781 -3.96875 0.9375 -3.96875 L 1.90625 -3.96875 C 2.019531 -3.96875 2.078125 -3.898438 2.078125 -3.765625 L 2.078125 -3.4375 C 2.078125 -3.25 2.191406 -2.992188 2.421875 -2.671875 C 2.660156 -2.347656 2.894531 -2.082031 3.125 -1.875 C 3.363281 -1.675781 3.679688 -1.503906 4.078125 -1.359375 C 4.472656 -1.210938 4.898438 -1.140625 5.359375 -1.140625 C 6.140625 -1.140625 6.753906 -1.300781 7.203125 -1.625 C 7.648438 -1.945312 7.875 -2.398438 7.875 -2.984375 C 7.875 -3.316406 7.75 -3.601562 7.5 -3.84375 C 7.25 -4.082031 6.921875 -4.273438 6.515625 -4.421875 C 6.117188 -4.566406 5.675781 -4.695312 5.1875 -4.8125 C 4.707031 -4.9375 4.222656 -5.078125 3.734375 -5.234375 C 3.253906 -5.398438 2.816406 -5.59375 2.421875 -5.8125 C 2.023438 -6.03125 1.703125 -6.332031 1.453125 -6.71875 C 1.203125 -7.113281 1.078125 -7.578125 1.078125 -8.109375 C 1.078125 -8.972656 1.398438 -9.6875 2.046875 -10.25 C 2.691406 -10.8125 3.5625 -11.09375 4.65625 -11.09375 C 6.03125 -11.09375 7.039062 -10.6875 7.6875 -9.875 L 7.65625 -10.828125 C 7.65625 -10.953125 7.722656 -11.015625 7.859375 -11.015625 L 8.71875 -11.015625 C 8.832031 -11.015625 8.890625 -10.953125 8.890625 -10.828125 L 8.890625 -7.484375 C 8.890625 -7.359375 8.832031 -7.296875 8.71875 -7.296875 L 7.75 -7.296875 C 7.625 -7.296875 7.5625 -7.359375 7.5625 -7.484375 L 7.5625 -7.921875 C 7.5625 -8.335938 7.328125 -8.757812 6.859375 -9.1875 C 6.390625 -9.613281 5.703125 -9.828125 4.796875 -9.828125 C 4.117188 -9.828125 3.570312 -9.664062 3.15625 -9.34375 C 2.75 -9.019531 2.546875 -8.609375 2.546875 -8.109375 C 2.546875 -7.753906 2.671875 -7.445312 2.921875 -7.1875 C 3.179688 -6.9375 3.515625 -6.734375 3.921875 -6.578125 C 4.328125 -6.429688 4.773438 -6.289062 5.265625 -6.15625 C 5.753906 -6.03125 6.242188 -5.890625 6.734375 -5.734375 C 7.222656 -5.585938 7.671875 -5.40625 8.078125 -5.1875 C 8.492188 -4.976562 8.828125 -4.6875 9.078125 -4.3125 C 9.335938 -3.9375 9.46875 -3.492188 9.46875 -2.984375 C 9.46875 -2.085938 9.144531 -1.347656 8.5 -0.765625 C 7.851562 -0.179688 6.894531 0.109375 5.625 0.109375 C 4.675781 0.109375 3.894531 -0.078125 3.28125 -0.453125 C 2.675781 -0.835938 2.234375 -1.25 1.953125 -1.6875 L 1.96875 -0.1875 C 1.96875 -0.0625 1.910156 0 1.796875 0 Z M 1.796875 0 "/></g></g></g><g fill="#000000" fill-opacity="1"><g transform="translate(188.694242, 270.983202)"><g><path d="M 4.609375 0 L 0.9375 0 C 0.800781 0 0.734375 -0.0625 0.734375 -0.1875 L 0.734375 -0.96875 C 0.734375 -1.082031 0.800781 -1.140625 0.9375 -1.140625 L 2.09375 -1.140625 L 2.09375 -9.84375 L 0.9375 -9.84375 C 0.800781 -9.84375 0.734375 -9.90625 0.734375 -10.03125 L 0.734375 -10.8125 C 0.734375 -10.9375 0.800781 -11 0.9375 -11 L 4.609375 -11 C 4.742188 -11 4.8125 -10.9375 4.8125 -10.8125 L 4.8125 -10.03125 C 4.8125 -9.90625 4.742188 -9.84375 4.609375 -9.84375 L 3.4375 -9.84375 L 3.4375 -1.140625 L 4.609375 -1.140625 C 4.742188 -1.140625 4.8125 -1.082031 4.8125 -0.96875 L 4.8125 -0.1875 C 4.8125 -0.0625 4.742188 0 4.609375 0 Z M 4.609375 0 "/></g></g></g><g fill="#000000" fill-opacity="1"><g transform="translate(195.003579, 270.983202)"><g><path d="M 7.3125 0 L 3.75 0 C 3.613281 0 3.546875 -0.0664062 3.546875 -0.203125 L 3.546875 -0.953125 C 3.546875 -1.078125 3.613281 -1.140625 3.75 -1.140625 L 4.921875 -1.140625 L 4.921875 -9.84375 L 2.015625 -9.84375 L 2.015625 -8.21875 C 2.015625 -8.082031 1.945312 -8.015625 1.8125 -8.015625 L 0.953125 -8.015625 C 0.804688 -8.015625 0.734375 -8.082031 0.734375 -8.21875 L 0.734375 -10.796875 C 0.734375 -10.929688 0.804688 -11 0.953125 -11 L 10.1875 -11 C 10.320312 -11 10.390625 -10.929688 10.390625 -10.796875 L 10.390625 -8.21875 C 10.390625 -8.082031 10.320312 -8.015625 10.1875 -8.015625 L 9.3125 -8.015625 C 9.175781 -8.015625 9.109375 -8.082031 9.109375 -8.21875 L 9.109375 -9.84375 L 6.25 -9.84375 L 6.25 -1.140625 L 7.3125 -1.140625 C 7.457031 -1.140625 7.53125 -1.078125 7.53125 -0.953125 L 7.53125 -0.203125 C 7.53125 -0.0664062 7.457031 0 7.3125 0 Z M 7.3125 0 "/></g></g></g><g fill="#000000" fill-opacity="1"><g transform="translate(206.902481, 270.983202)"><g><path d="M 9.0625 0 L 0.9375 0 C 0.800781 0 0.734375 -0.0625 0.734375 -0.1875 L 0.734375 -0.96875 C 0.734375 -1.082031 0.800781 -1.140625 0.9375 -1.140625 L 2.09375 -1.140625 L 2.09375 -9.84375 L 0.9375 -9.84375 C 0.800781 -9.84375 0.734375 -9.90625 0.734375 -10.03125 L 0.734375 -10.8125 C 0.734375 -10.9375 0.800781 -11 0.9375 -11 L 9.0625 -11 C 9.195312 -11 9.265625 -10.9375 9.265625 -10.8125 L 9.265625 -8.34375 C 9.265625 -8.207031 9.195312 -8.140625 9.0625 -8.140625 L 8.234375 -8.140625 C 8.109375 -8.140625 8.046875 -8.207031 8.046875 -8.34375 L 8.046875 -9.84375 L 3.4375 -9.84375 L 3.4375 -6.046875 L 7.296875 -6.046875 C 7.429688 -6.046875 7.5 -5.984375 7.5 -5.859375 L 7.5 -5.078125 C 7.5 -4.960938 7.429688 -4.90625 7.296875 -4.90625 L 3.4375 -4.90625 L 3.4375 -1.140625 L 8.03125 -1.140625 L 8.03125 -2.65625 C 8.03125 -2.769531 8.097656 -2.828125 8.234375 -2.828125 L 9.0625 -2.828125 C 9.195312 -2.828125 9.265625 -2.769531 9.265625 -2.65625 L 9.265625 -0.1875 C 9.265625 -0.0625 9.195312 0 9.0625 0 Z M 9.0625 0 "/></g></g></g></svg>