<svg xmlns="http://www.w3.org/2000/svg" xmlns:xlink="http://www.w3.org/1999/xlink" width="500" zoomAndPan="magnify" viewBox="0 0 375 374.999991" height="500" preserveAspectRatio="xMidYMid meet" version="1.0"><defs><g/></defs><g fill="#000000" fill-opacity="1"><g transform="translate(0.0000045, 239.216117)"><g><path d="M 13.828125 0 L 13.828125 -118.265625 L 54.640625 -118.265625 L 54.640625 -105.8125 L 55.09375 -105.8125 C 65.695312 -116.414062 76.992188 -121.71875 88.984375 -121.71875 C 97.585938 -121.71875 105.65625 -119.945312 113.1875 -116.40625 C 120.71875 -112.875 126.40625 -107.421875 130.25 -100.046875 C 142.238281 -114.492188 155.300781 -121.71875 169.4375 -121.71875 C 182.039062 -121.71875 192.875 -118.179688 201.9375 -111.109375 C 211.007812 -104.046875 215.546875 -92.984375 215.546875 -77.921875 L 215.546875 0 L 174.75 0 L 174.75 -66.859375 C 174.75 -73.160156 173.019531 -78.421875 169.5625 -82.640625 C 166.101562 -86.867188 160.914062 -88.984375 154 -88.984375 C 148 -88.984375 143.421875 -87.175781 140.265625 -83.5625 C 137.117188 -79.957031 135.394531 -75.617188 135.09375 -70.546875 L 135.09375 0 L 94.28125 0 L 94.28125 -66.859375 C 94.28125 -73.160156 92.550781 -78.421875 89.09375 -82.640625 C 85.632812 -86.867188 80.453125 -88.984375 73.546875 -88.984375 C 67.242188 -88.984375 62.515625 -87.023438 59.359375 -83.109375 C 56.210938 -79.191406 54.640625 -74.539062 54.640625 -69.15625 L 54.640625 0 Z M 13.828125 0 "/></g></g></g><g fill="#000000" fill-opacity="1"><g transform="translate(215.548254, 239.216117)"><g><path d="M 43.796875 -118.265625 L 72.625 -53.9375 L 101.4375 -118.265625 L 149.84375 -118.265625 L 86.453125 0 L 58.78125 0 L -4.609375 -118.265625 Z M 43.796875 -118.265625 "/></g></g></g></svg>